<svg xmlns="http://www.w3.org/2000/svg" width="391" height="288" viewBox="0.0 0.0 391.0 288.0"><g id="others"><path d="M 331.564,143.048 C 331.983,143.187 332.902,144.875 333.717,147 C 334.059,147.894 334.486,148.850 334.666,149.125 C 334.845,149.400 335.070,149.963 335.166,150.375 C 335.263,150.787 335.789,152.481 336.337,154.138 C 336.884,155.795 337.442,157.707 337.576,158.388 C 337.710,159.068 338.045,160.637 338.321,161.875 C 339.513,167.221 339.873,168.927 339.984,169.750 C 340.049,170.231 340.215,171.296 340.353,172.117 C 340.512,173.059 340.517,173.696 340.365,173.846 C 340.042,174.167 339.972,173.896 339.481,170.375 C 339.108,167.706 338.338,164.032 337.541,161.125 C 337.390,160.575 337.118,159.450 336.936,158.625 C 336.542,156.838 335.764,154.136 335.380,153.214 C 335.228,152.851 335.027,152.147 334.933,151.649 C 334.839,151.151 334.548,150.328 334.287,149.820 C 334.025,149.311 333.811,148.758 333.811,148.593 C 333.811,148.427 333.644,147.972 333.439,147.583 C 333.234,147.194 332.700,146.088 332.251,145.125 C 331.803,144.162 331.389,143.276 331.332,143.156 C 331.276,143.036 331.380,142.988 331.564,143.048 Z" fill="#DC2E2D" stroke="none" />
  <path d="M 340.236,175.500 C 340.305,175.500 340.361,175.556 340.361,175.625 C 340.361,175.694 340.305,175.750 340.236,175.750 C 340.166,175.750 340.110,175.694 340.110,175.625 C 340.110,175.556 340.166,175.500 340.236,175.500 Z" fill="#DC2E2D" stroke="none" />
  </g><g id="text 2"><path d="M 27.974,183.484 C 28.618,169.855 31.734,156.265 37.086,143.750 C 40.071,136.770 43.686,130.482 47.901,124.939 C 50.319,121.759 58.119,113.784 60.174,112.391 C 60.535,112.146 60.895,111.901 61.256,111.657 C 61.971,112.008 62.685,112.360 63.400,112.712 C 73.249,117.558 82.748,126.442 89.879,137.475 C 92.157,140.998 96.327,149.280 97.886,153.375 C 104.643,171.121 106.268,193.708 101.768,207.318 C 100.016,212.614 98.054,215.544 94.449,218.239 C 88.382,222.776 79.537,225.123 67.364,225.428 C 58.572,225.648 51.969,224.723 44.466,222.220 C 41.527,221.240 35.741,218.415 32.946,216.597 C 30.469,214.985 30.537,215.104 29.745,211 C 28.241,203.203 27.550,192.470 27.974,183.484 ZM 84.740,173.750 C 84.231,164.816 82.854,156.708 80.738,150.174 C 79.423,146.113 76.775,140 76.330,140 C 75.951,140 68.532,147.773 66.427,150.375 C 63.947,153.442 59.538,159.840 57.335,163.570 C 49.602,176.662 44.654,192.379 44.167,205.398 C 44.117,206.738 44.067,208.079 44.016,209.420 C 44.847,209.475 45.678,209.529 46.509,209.584 C 50.275,209.831 59.639,209.780 63.613,209.491 C 69.658,209.051 78.287,207.704 81.299,206.730 C 82.246,206.424 82.160,206.652 83.122,201.875 C 84.523,194.913 84.695,193.037 84.766,183.875 C 84.803,179.200 84.791,174.644 84.740,173.750 Z" fill="#FFFFFF" stroke="none" />
  </g><g id="text 1"><path d="M 259.568,144.877 C 259.733,144.825 264.177,144.159 269.442,143.398 C 274.708,142.637 282.163,141.544 286.010,140.969 C 289.856,140.393 293.051,139.970 293.109,140.027 C 293.213,140.130 291.745,152.900 290.755,160.500 C 290.478,162.631 290.175,165.134 290.083,166.062 C 290.028,166.625 289.972,167.188 289.916,167.750 C 290.140,167.750 290.363,167.750 290.587,167.750 C 291.183,167.750 291.367,167.515 292.244,165.622 C 295.315,158.993 300.826,150.972 305.488,146.347 C 311.486,140.395 318.084,137.695 324.651,138.505 C 327.662,138.876 328.290,139.190 329.469,140.914 C 333.076,146.191 336.378,156.235 338.702,169 C 340.697,179.959 342.117,199.847 342.123,216.919 C 342.124,218.518 342.124,220.116 342.125,221.714 C 341.684,221.761 341.243,221.808 340.802,221.855 C 338.908,222.057 315.167,223.742 314.139,223.748 C 313.780,223.750 313.722,222.248 313.570,209.188 C 313.411,195.462 313.186,189.010 312.271,172 C 311.791,163.072 311.252,156.750 310.972,156.750 C 310.691,156.750 305.775,159.967 304.461,161.010 C 300.719,163.983 298.760,166.554 295.869,172.288 C 290.503,182.929 287.423,194.434 283.406,218.837 C 283.088,220.768 282.680,222.453 282.483,222.649 C 282.288,222.842 281.825,223.001 281.454,223.002 C 280.789,223.004 272.770,223.582 269.041,223.896 C 268.403,223.950 267.765,224.004 267.128,224.058 C 267.074,223.444 267.019,222.830 266.965,222.216 C 266.876,221.203 266.234,214.863 265.540,208.125 C 263.223,185.650 261.289,166.223 260.386,156.375 C 259.895,151.012 259.442,146.254 259.380,145.799 C 259.310,145.291 259.382,144.937 259.568,144.877 Z" fill="#FFFFFF" stroke="none" />
  <path d="M 169.196,244.060 C 170.387,241.964 171.495,240.250 171.659,240.250 C 171.822,240.250 173.087,240.549 174.469,240.915 C 176.665,241.496 177.492,241.583 181.014,241.602 C 185.828,241.629 187.930,241.227 191.038,239.685 C 192.686,238.867 193.598,238.172 195.526,236.267 C 198.888,232.942 200.791,229.471 200.791,226.659 C 200.791,224.982 200.090,223.025 195.965,213.174 C 193.881,208.197 190.894,201.031 189.327,197.250 C 187.760,193.469 185.378,187.731 184.035,184.500 C 182.691,181.269 180.855,176.825 179.955,174.625 C 173.585,159.055 171.542,154.094 169.903,150.211 C 168.878,147.783 168.039,145.632 168.039,145.431 C 168.039,145.157 168.627,144.992 170.370,144.773 C 175.279,144.156 200.683,140.121 201.417,139.842 C 201.889,139.662 201.100,135.467 207.207,170.625 C 210.020,186.819 211.994,198.030 212.413,200.188 C 212.658,201.455 213.120,201.881 213.533,201.219 C 213.629,201.064 216.006,194.117 218.815,185.781 C 223.804,170.976 228.549,157.134 230.010,153.125 C 230.411,152.025 231.553,148.762 232.550,145.875 C 233.546,142.988 234.394,140.587 234.435,140.541 C 234.477,140.494 235.397,140.691 236.482,140.980 C 237.567,141.268 240.428,142.008 242.841,142.625 C 245.253,143.243 247.264,143.784 247.308,143.827 C 247.353,143.871 245.743,147.950 243.732,152.891 C 241.720,157.832 237.875,167.444 235.188,174.250 C 232.500,181.056 228.639,190.787 226.608,195.875 C 224.577,200.963 221.916,207.656 220.695,210.750 C 210.149,237.473 207.129,243.836 202.693,248.677 C 200.067,251.543 196.286,253.582 191.595,254.661 C 188.764,255.312 182.022,255.307 179.502,254.651 C 177.049,254.013 173.880,252.688 171.810,251.434 C 169.760,250.191 167.032,248.245 167.032,248.024 C 167.032,247.939 168.006,246.155 169.196,244.060 Z" fill="#FFFFFF" stroke="none" />
  </g><g id="palm tree"><path d="M 87.807,78.273 C 91.342,75.675 94.397,74.239 98.531,73.233 C 101.837,72.428 106.977,72.414 110.172,73.201 C 118.971,75.368 126.394,82.040 129.389,90.475 C 129.579,91.009 129.768,91.542 129.957,92.076 C 130.051,91.709 130.145,91.342 130.238,90.975 C 132.892,80.577 139.411,72.796 147.796,70.019 C 152.201,68.560 156.420,68.438 161.165,69.632 C 163.707,70.272 167.182,71.719 166.852,72.001 C 166.743,72.094 165.917,72.427 165.016,72.741 C 162.531,73.609 158.572,75.552 156.358,76.990 C 155.697,77.420 155.037,77.849 154.376,78.278 C 153.609,78.099 152.842,77.920 152.075,77.741 C 150.810,77.445 148.952,77.142 147.948,77.066 C 146.293,76.941 146.121,76.971 146.121,77.387 C 146.121,77.639 146.704,78.727 147.417,79.804 C 148.129,80.881 148.668,81.804 148.613,81.855 C 148.559,81.906 147.551,82.654 146.373,83.518 C 143.572,85.571 140.395,88.755 137.984,91.925 C 136.917,93.328 136.044,94.525 136.044,94.585 C 136.044,94.645 137.263,94.156 138.752,93.497 C 144.365,91.016 148.113,90.169 153.427,90.184 C 157.232,90.195 158.975,90.499 162.267,91.730 C 165.124,92.797 168.531,95.240 170.475,97.616 C 172.978,100.675 174.334,105.144 174.337,110.339 C 174.338,112.909 174.488,112.867 171.756,111.053 C 169.203,109.358 165.947,107.447 163.978,106.487 C 163.422,106.216 162.866,105.945 162.310,105.675 C 161.760,104.521 161.210,103.366 160.660,102.212 C 159.752,100.308 158.882,98.750 158.725,98.750 C 158.345,98.750 157.800,100.093 157.577,101.582 C 157.477,102.246 157.266,102.839 157.108,102.899 C 156.950,102.959 155.899,102.674 154.771,102.266 C 152.129,101.309 149.378,100.617 146.238,100.118 C 143.395,99.667 134.028,99.310 134.028,99.653 C 134.028,99.775 133.803,102.181 133.528,105 C 132.968,110.728 132.937,111.330 133.214,111.161 C 133.320,111.096 137.146,110.411 141.716,109.638 C 146.287,108.865 150.570,108.124 151.235,107.992 C 152.899,107.659 153.931,107.686 153.930,108.062 C 153.929,108.234 153.763,110.287 153.561,112.625 C 153.359,114.963 153.014,119.125 152.796,121.875 C 152.577,124.625 151.503,136.775 150.409,148.875 C 148.056,174.893 146.767,189.400 146.244,195.750 C 146.034,198.294 145.696,202.231 145.494,204.500 C 145.291,206.769 144.889,211.662 144.600,215.375 C 144.312,219.088 143.998,222.194 143.902,222.277 C 143.740,222.419 128.185,224.040 128.081,223.927 C 128.055,223.898 127.621,217.969 127.116,210.750 C 126.611,203.531 125.976,194.700 125.704,191.125 C 125.433,187.550 124.871,179.675 124.456,173.625 C 122.857,150.285 120.394,116.968 120.048,113.986 C 120.004,113.606 119.960,113.225 119.916,112.846 C 120.806,112.734 121.696,112.621 122.586,112.509 C 124.055,112.324 125.301,112.049 125.356,111.899 C 125.509,111.475 126.470,103.385 126.470,102.519 C 126.470,102.048 126.341,101.750 126.137,101.750 C 125.502,101.750 121.297,103.949 119.457,105.243 C 117.161,106.859 113.329,110.637 110.709,113.870 C 110.047,114.687 109.384,115.504 108.722,116.322 C 108.232,115.793 107.741,115.263 107.251,114.734 C 106.035,113.422 105.707,113.193 105.355,113.412 C 104.726,113.802 104.707,115.195 105.292,118.042 C 105.578,119.432 105.812,120.797 105.812,121.075 C 105.812,121.352 105.146,122.602 104.332,123.852 C 102.701,126.358 101.739,128.197 100.627,130.937 C 100.222,131.933 99.824,132.749 99.741,132.749 C 99.508,132.750 97.344,128.045 96.867,126.500 C 96.240,124.469 96.085,119.613 96.568,117.088 C 97.917,110.023 103.240,102.951 109.465,99.953 C 113.428,98.044 116.890,97.271 122.539,97.033 C 123.791,96.980 125.041,96.928 126.292,96.875 C 125.472,96.255 124.651,95.635 123.830,95.015 C 120.597,92.574 118.482,90.543 118.268,89.674 C 118.168,89.267 118.276,88.236 118.525,87.216 C 118.762,86.250 118.904,85.409 118.841,85.346 C 118.679,85.185 116.076,86.179 114.484,87.010 C 114.036,87.244 113.589,87.478 113.141,87.711 C 112.318,87.354 111.496,86.997 110.673,86.640 C 109.316,86.051 107.610,85.376 106.883,85.139 C 106.134,84.896 105.560,84.560 105.560,84.364 C 105.560,84.174 105.804,83.370 106.103,82.578 C 106.783,80.774 107.072,79.530 106.843,79.389 C 106.424,79.132 104.221,79.866 101.580,81.143 C 100.631,81.602 99.682,82.060 98.733,82.519 C 97.709,82.262 96.684,82.005 95.659,81.748 C 93.968,81.323 91.026,80.785 89.121,80.551 C 87.216,80.317 85.657,80.064 85.657,79.989 C 85.657,79.914 86.625,79.142 87.807,78.273 Z" fill="#FFFFFF" stroke="none" />
  </g></svg>